<svg width="129" height="69" viewBox="0 0 129 69" fill="none" xmlns="http://www.w3.org/2000/svg">
<rect width="129" height="68.8361" fill="#050505"/>
<path d="M11.3823 31.979V14.3634C11.3823 12.717 12.717 11.3823 14.3634 11.3823H17.2609C18.0515 11.3823 18.8098 11.6964 19.3688 12.2555L32.5581 25.4448C33.7223 26.609 35.6099 26.609 36.774 25.4448L49.9634 12.2555C50.5224 11.6964 51.2807 11.3823 52.0713 11.3823H54.4727C56.1191 11.3823 57.4538 12.717 57.4538 14.3634V31.979H52.8466V23.0847C52.8466 20.4288 49.6355 19.0988 47.7576 20.9767L37.6285 31.1058C37.0694 31.6649 36.3112 31.979 35.5205 31.979H33.4284C32.6377 31.979 31.8795 31.6649 31.3204 31.1058L21.3495 21.1349C19.4715 19.2569 16.2605 20.587 16.2605 23.2429V31.979H11.3823Z" fill="white"/>
<path d="M11.3823 36.8571V54.4727C11.3823 56.1191 12.717 57.4538 14.3634 57.4538H54.4727C56.1191 57.4538 57.4538 56.1191 57.4538 54.4727V36.8571H52.8466V49.5945C52.8466 51.2409 51.5119 52.5756 49.8655 52.5756H19.2416C17.5952 52.5756 16.2605 51.2409 16.2605 49.5945V36.8571H11.3823Z" fill="white"/>
<path d="M116.117 30.3545L116.117 32.272L108.258 32.272L108.258 30.3545L116.117 30.3545Z" fill="white"/>
<path d="M70.6972 26.5812L69.9096 24.8007L69.5501 26.5812L68.3859 32.4536H66.4855L69.0879 19.8699H69.2933L72.7517 26.6668L73.7789 28.9439L74.8062 26.6668L78.1961 19.8699H78.3844L81.0894 32.4536H79.2062L77.9392 26.5812L77.5626 24.8007L76.8778 26.5812L73.8303 32.4536H73.7276L70.6972 26.5812ZM85.3787 32.6248C84.2944 32.6248 83.5468 32.3052 83.1359 31.6661C82.7364 31.0269 82.5367 30.1366 82.5367 28.9952V24.5952H84.3857V28.533C84.3857 29.1836 84.42 29.6915 84.4884 30.0567C84.5683 30.4105 84.7167 30.6731 84.9336 30.8443C85.1618 31.0155 85.4986 31.1011 85.9437 31.1011C86.2633 31.1011 86.5714 31.0098 86.8682 30.8271C87.165 30.6445 87.4047 30.3991 87.5873 30.091C87.7813 29.7714 87.8783 29.4233 87.8783 29.0466V24.5952H89.7102V32.4536H88.2036L87.9982 31.3065C87.7128 31.7517 87.3533 32.0827 86.9196 32.2995C86.4973 32.5164 85.9836 32.6248 85.3787 32.6248ZM92.324 19.8699H94.1559V32.4536H92.324V19.8699ZM97.4358 26.1018H96.049V24.5952H97.4358V21.3937L99.302 20.9828V24.5952H101.117V26.1018H99.302V32.4536H97.4358V26.1018ZM102.756 24.5952H104.674V32.4536H102.756V24.5952ZM103.698 23.1228C103.344 23.1228 103.048 23.003 102.808 22.7633C102.568 22.5236 102.448 22.2269 102.448 21.873C102.448 21.5535 102.568 21.2795 102.808 21.0512C103.048 20.823 103.344 20.7088 103.698 20.7088C104.041 20.7088 104.332 20.823 104.571 21.0512C104.811 21.2795 104.931 21.5535 104.931 21.873C104.931 22.2269 104.811 22.5236 104.571 22.7633C104.343 23.003 104.052 23.1228 103.698 23.1228ZM71.7929 57.6248C70.2178 57.6248 69.0764 57.1511 68.3688 56.2038C67.6611 55.2565 67.3073 53.8811 67.3073 52.0777V44.8699H69.2248V52.112C69.2248 53.4474 69.4246 54.4061 69.824 54.9882C70.2235 55.5589 70.8798 55.8443 71.7929 55.8443C72.706 55.8443 73.3566 55.5646 73.7447 55.0054C74.1442 54.4347 74.3439 53.4702 74.3439 52.112V44.8699H76.2785V52.0777C76.2785 53.8697 75.9019 55.245 75.1486 56.2038C74.4067 57.1511 73.2881 57.6248 71.7929 57.6248ZM78.6773 49.5952H80.4921L80.5092 51.0334C80.7261 50.554 81.0685 50.1602 81.5365 49.852C82.0044 49.5439 82.5523 49.3898 83.18 49.3898C83.9904 49.3898 84.6125 49.561 85.0462 49.9034C85.4799 50.2344 85.771 50.7024 85.9193 51.3073C86.0677 51.9122 86.1419 52.6998 86.1419 53.6699V57.4536H84.2929V53.7213C84.2929 52.7283 84.1959 52.0149 84.0018 51.5812C83.8078 51.1361 83.4083 50.9135 82.8034 50.9135C82.461 50.9135 82.1129 51.0219 81.759 51.2388C81.4052 51.4443 81.1084 51.7467 80.8688 52.1462C80.6405 52.5457 80.5263 53.0137 80.5263 53.5501V57.4536H78.6773V49.5952ZM88.662 49.5952H90.5795V57.4536H88.662V49.5952ZM89.6036 48.1228C89.2498 48.1228 88.9531 48.003 88.7134 47.7633C88.4737 47.5236 88.3538 47.2269 88.3538 46.873C88.3538 46.5535 88.4737 46.2795 88.7134 46.0512C88.9531 45.823 89.2498 45.7088 89.6036 45.7088C89.9461 45.7088 90.2371 45.823 90.4768 46.0512C90.7165 46.2795 90.8363 46.5535 90.8363 46.873C90.8363 47.2269 90.7165 47.5236 90.4768 47.7633C90.2485 48.003 89.9575 48.1228 89.6036 48.1228ZM93.8244 51.1018H92.4376V49.5952H93.8244V46.3937L95.6906 45.9828V49.5952H97.5054V51.1018H95.6906V57.4536H93.8244V51.1018ZM102.723 57.6248C101.787 57.6248 101.006 57.4422 100.378 57.077C99.75 56.7003 99.2877 56.2038 98.991 55.5875C98.6942 54.9597 98.5458 54.2749 98.5458 53.533C98.5458 52.6998 98.7171 51.9693 99.0595 51.3415C99.4133 50.7138 99.8984 50.2344 100.515 49.9034C101.131 49.561 101.827 49.3898 102.603 49.3898C103.813 49.3898 104.709 49.7265 105.291 50.3999C105.885 51.0619 106.182 51.9978 106.182 53.2077C106.182 53.5159 106.165 53.8354 106.13 54.1664H100.48C100.606 54.8627 100.851 55.3649 101.217 55.6731C101.593 55.9812 102.113 56.1353 102.775 56.1353C103.323 56.1353 103.773 56.0897 104.127 55.9984C104.481 55.907 104.806 55.7815 105.103 55.6217L105.668 56.94C105.383 57.1226 104.995 57.2824 104.504 57.4194C104.013 57.5563 103.42 57.6248 102.723 57.6248ZM104.384 52.8824C104.395 52.1747 104.241 51.6782 103.922 51.3929C103.602 51.0961 103.146 50.9478 102.552 50.9478C101.354 50.9478 100.663 51.5926 100.48 52.8824H104.384ZM111.596 57.6248C110.888 57.6248 110.232 57.4593 109.627 57.1283C109.033 56.7859 108.554 56.3065 108.189 55.6902C107.835 55.0624 107.658 54.3319 107.658 53.4987C107.658 52.2546 108.006 51.2616 108.702 50.5197C109.399 49.7664 110.34 49.3898 111.527 49.3898C112.189 49.3898 112.794 49.5553 113.342 49.8863C113.89 50.2059 114.261 50.5939 114.455 51.0505L114.369 49.7151V44.8699H116.184V57.4536H114.421L114.386 56.0668C114.192 56.4777 113.838 56.843 113.325 57.1626C112.811 57.4707 112.235 57.6248 111.596 57.6248ZM111.904 56.0668C112.554 56.0668 113.102 55.8443 113.547 55.3991C113.993 54.9426 114.215 54.3491 114.215 53.6186V53.4987C114.215 53.0079 114.112 52.5685 113.907 52.1804C113.702 51.7924 113.422 51.4899 113.068 51.273C112.714 51.0562 112.326 50.9478 111.904 50.9478C111.173 50.9478 110.608 51.1874 110.209 51.6668C109.809 52.1348 109.61 52.7454 109.61 53.4987C109.61 54.2635 109.804 54.8855 110.192 55.3649C110.591 55.8329 111.162 56.0668 111.904 56.0668Z" fill="white"/>
</svg>
