<svg width="129" height="69" viewBox="0 0 129 69" fill="none" xmlns="http://www.w3.org/2000/svg">
<path d="M11.3823 31.9785V14.3629C11.3823 12.7165 12.717 11.3818 14.3634 11.3818H17.2609C18.0515 11.3818 18.8098 11.6959 19.3688 12.255L32.5581 25.4443C33.7223 26.6085 35.6099 26.6085 36.774 25.4443L49.9634 12.255C50.5224 11.6959 51.2807 11.3818 52.0713 11.3818H54.4727C56.1191 11.3818 57.4538 12.7165 57.4538 14.3629V31.9785H52.8466V23.0842C52.8466 20.4283 49.6355 19.0983 47.7576 20.9763L37.6285 31.1053C37.0694 31.6644 36.3112 31.9785 35.5205 31.9785H33.4284C32.6377 31.9785 31.8795 31.6644 31.3204 31.1053L21.3495 21.1344C19.4715 19.2564 16.2605 20.5865 16.2605 23.2424V31.9785H11.3823Z" fill="white"/>
<path d="M11.3823 36.8566V54.4722C11.3823 56.1186 12.717 57.4533 14.3634 57.4533H54.4727C56.1191 57.4533 57.4538 56.1186 57.4538 54.4722V36.8566H52.8466V49.594C52.8466 51.2404 51.5119 52.5751 49.8655 52.5751H19.2416C17.5952 52.5751 16.2605 51.2404 16.2605 49.594V36.8566H11.3823Z" fill="white"/>
<path d="M115.991 30.9014L115.991 32.8189L108.132 32.8189L108.132 30.9014L115.991 30.9014Z" fill="white"/>
<path d="M70.6972 26.5817L69.9096 24.8012L69.5501 26.5817L68.3859 32.4541H66.4855L69.0879 19.8704H69.2933L72.7517 26.6673L73.7789 28.9444L74.8062 26.6673L78.1961 19.8704H78.3844L81.0894 32.4541H79.2062L77.9392 26.5817L77.5626 24.8012L76.8778 26.5817L73.8303 32.4541H73.7276L70.6972 26.5817ZM85.3787 32.6253C84.2944 32.6253 83.5468 32.3057 83.1359 31.6666C82.7364 31.0274 82.5367 30.1371 82.5367 28.9957V24.5957H84.3857V28.5335C84.3857 29.1841 84.42 29.692 84.4884 30.0572C84.5683 30.411 84.7167 30.6736 84.9336 30.8448C85.1618 31.016 85.4986 31.1016 85.9437 31.1016C86.2633 31.1016 86.5714 31.0103 86.8682 30.8276C87.165 30.645 87.4047 30.3996 87.5873 30.0914C87.7813 29.7719 87.8783 29.4237 87.8783 29.0471V24.5957H89.7102V32.4541H88.2036L87.9982 31.307C87.7128 31.7522 87.3533 32.0832 86.9196 32.3C86.4973 32.5169 85.9836 32.6253 85.3787 32.6253ZM92.324 19.8704H94.1559V32.4541H92.324V19.8704ZM97.4358 26.1023H96.049V24.5957H97.4358V21.3941L99.302 20.9832V24.5957H101.117V26.1023H99.302V32.4541H97.4358V26.1023ZM102.756 24.5957H104.674V32.4541H102.756V24.5957ZM103.698 23.1233C103.344 23.1233 103.048 23.0035 102.808 22.7638C102.568 22.5241 102.448 22.2274 102.448 21.8735C102.448 21.5539 102.568 21.28 102.808 21.0517C103.048 20.8235 103.344 20.7093 103.698 20.7093C104.041 20.7093 104.332 20.8235 104.571 21.0517C104.811 21.28 104.931 21.5539 104.931 21.8735C104.931 22.2274 104.811 22.5241 104.571 22.7638C104.343 23.0035 104.052 23.1233 103.698 23.1233ZM71.7929 53.6253C70.2178 53.6253 69.0764 53.1516 68.3688 52.2043C67.6611 51.2569 67.3073 49.8816 67.3073 48.0782V40.8704H69.2248V48.1125C69.2248 49.4479 69.4246 50.4066 69.824 50.9887C70.2235 51.5594 70.8798 51.8448 71.7929 51.8448C72.706 51.8448 73.3566 51.5651 73.7447 51.0058C74.1442 50.4352 74.3439 49.4707 74.3439 48.1125V40.8704H76.2785V48.0782C76.2785 49.8702 75.9019 51.2455 75.1486 52.2043C74.4067 53.1516 73.2881 53.6253 71.7929 53.6253ZM78.6773 45.5957H80.4921L80.5092 47.0338C80.7261 46.5545 81.0685 46.1607 81.5365 45.8525C82.0044 45.5443 82.5523 45.3903 83.18 45.3903C83.9904 45.3903 84.6125 45.5615 85.0462 45.9039C85.4799 46.2349 85.771 46.7028 85.9193 47.3078C86.0677 47.9127 86.1419 48.7003 86.1419 49.6704V53.4541H84.2929V49.7218C84.2929 48.7288 84.1959 48.0154 84.0018 47.5817C83.8078 47.1366 83.4083 46.914 82.8034 46.914C82.461 46.914 82.1129 47.0224 81.759 47.2393C81.4052 47.4447 81.1084 47.7472 80.8688 48.1467C80.6405 48.5462 80.5263 49.0141 80.5263 49.5506V53.4541H78.6773V45.5957ZM88.662 45.5957H90.5795V53.4541H88.662V45.5957ZM89.6036 44.1233C89.2498 44.1233 88.9531 44.0035 88.7134 43.7638C88.4737 43.5241 88.3538 43.2274 88.3538 42.8735C88.3538 42.5539 88.4737 42.28 88.7134 42.0517C88.9531 41.8235 89.2498 41.7093 89.6036 41.7093C89.9461 41.7093 90.2371 41.8235 90.4768 42.0517C90.7165 42.28 90.8363 42.5539 90.8363 42.8735C90.8363 43.2274 90.7165 43.5241 90.4768 43.7638C90.2485 44.0035 89.9575 44.1233 89.6036 44.1233ZM93.8244 47.1023H92.4376V45.5957H93.8244V42.3941L95.6906 41.9832V45.5957H97.5054V47.1023H95.6906V53.4541H93.8244V47.1023ZM102.723 53.6253C101.787 53.6253 101.006 53.4427 100.378 53.0774C99.75 52.7008 99.2877 52.2043 98.991 51.5879C98.6942 50.9602 98.5458 50.2754 98.5458 49.5335C98.5458 48.7003 98.7171 47.9698 99.0595 47.342C99.4133 46.7143 99.8984 46.2349 100.515 45.9039C101.131 45.5615 101.827 45.3903 102.603 45.3903C103.813 45.3903 104.709 45.727 105.291 46.4004C105.885 47.0624 106.182 47.9983 106.182 49.2082C106.182 49.5163 106.165 49.8359 106.13 50.1669H100.48C100.606 50.8632 100.851 51.3654 101.217 51.6736C101.593 51.9817 102.113 52.1358 102.775 52.1358C103.323 52.1358 103.773 52.0902 104.127 51.9988C104.481 51.9075 104.806 51.782 105.103 51.6222L105.668 52.9405C105.383 53.1231 104.995 53.2829 104.504 53.4199C104.013 53.5568 103.42 53.6253 102.723 53.6253ZM104.384 48.8829C104.395 48.1752 104.241 47.6787 103.922 47.3934C103.602 47.0966 103.146 46.9482 102.552 46.9482C101.354 46.9482 100.663 47.5931 100.48 48.8829H104.384ZM111.596 53.6253C110.888 53.6253 110.232 53.4598 109.627 53.1288C109.033 52.7864 108.554 52.307 108.189 51.6907C107.835 51.0629 107.658 50.3324 107.658 49.4992C107.658 48.2551 108.006 47.2621 108.702 46.5202C109.399 45.7669 110.34 45.3903 111.527 45.3903C112.189 45.3903 112.794 45.5558 113.342 45.8868C113.89 46.2063 114.261 46.5944 114.455 47.051L114.369 45.7156V40.8704H116.184V53.4541H114.421L114.386 52.0673C114.192 52.4782 113.838 52.8435 113.325 53.1631C112.811 53.4712 112.235 53.6253 111.596 53.6253ZM111.904 52.0673C112.554 52.0673 113.102 51.8448 113.547 51.3996C113.993 50.9431 114.215 50.3496 114.215 49.6191V49.4992C114.215 49.0084 114.112 48.569 113.907 48.1809C113.702 47.7929 113.422 47.4904 113.068 47.2735C112.714 47.0567 112.326 46.9482 111.904 46.9482C111.173 46.9482 110.608 47.1879 110.209 47.6673C109.809 48.1353 109.61 48.7459 109.61 49.4992C109.61 50.2639 109.804 50.886 110.192 51.3654C110.591 51.8333 111.162 52.0673 111.904 52.0673Z" fill="white"/>
</svg>
