<svg width="299" height="299" viewBox="0 0 299 299" fill="none" xmlns="http://www.w3.org/2000/svg">
<path d="M150.276 2.33594H148.736V296.336H150.276V2.33594Z" stroke="black" stroke-width="3.35647"/>
<path d="M223.671 22.4182L222.338 21.6451L75.3409 276.259L76.6678 277.027L223.671 22.4182Z" stroke="black" stroke-width="3.35647"/>
<path d="M188.294 7.54538L186.806 7.14155L110.711 291.126L112.2 291.53L188.294 7.54538Z" stroke="black" stroke-width="3.35647"/>
<path d="M253.993 45.9334L252.903 44.8489L45.0124 252.739L46.1086 253.829L253.993 45.9334Z" stroke="black" stroke-width="3.35647"/>
<path d="M277.196 76.5037L276.429 75.1654L21.8149 222.168L22.5879 223.501L277.196 76.5037Z" stroke="black" stroke-width="3.35647"/>
<path d="M291.694 112.036L291.29 110.547L7.31146 186.642L7.70953 188.125L291.694 112.036Z" stroke="black" stroke-width="3.35647"/>
<path d="M296.5 150.106V148.566H2.5V150.106H296.5Z" stroke="black" stroke-width="3.35647"/>
<path d="M291.296 188.124L291.7 186.636L7.71529 110.541L7.31146 112.03L291.296 188.124Z" stroke="black" stroke-width="3.35647"/>
<path d="M252.908 253.824L253.999 252.739L46.1029 44.8489L45.0124 45.9391L252.908 253.824Z" stroke="black" stroke-width="3.35647"/>
<path d="M276.429 223.507L277.196 222.168L22.5879 75.1711L21.8149 76.498L276.429 223.507Z" stroke="black" stroke-width="3.35647"/>
<path d="M222.338 277.027L223.677 276.254L76.6792 21.6451L75.3409 22.4124L222.338 277.027Z" stroke="black" stroke-width="3.35647"/>
<path d="M186.812 291.525L188.294 291.121L112.2 7.1474L110.717 7.55123L186.812 291.525Z" stroke="black" stroke-width="3.35647"/>
</svg>
